<svg xmlns="http://www.w3.org/2000/svg" viewBox="0 0 100 100">
    <path d="M50 30a20 20 0 1 0 20 20A20 20 0 0 0 50 30zm0 36a16 16 0 1 1 16-16 16 16 0 0 1-16 16z"/>
    <path d="M50 0a4 4 0 0 0-4 4v8.18a34.07 34.07 0 0 0-8.18 3.36L32.36 9.64a4 4 0 0 0-5.66 0L20.36 16a4 4 0 0 0 0 5.66l5.9 5.9a34.07 34.07 0 0 0-3.36 8.18H4a4 4 0 0 0-4 4v8a4 4 0 0 0 4 4h8.18a34.07 34.07 0 0 0 3.36 8.18l-5.9 5.9a4 4 0 0 0 0 5.66L16 79.64a4 4 0 0 0 5.66 0l5.9-5.9a34.07 34.07 0 0 0 8.18 3.36V96a4 4 0 0 0 4 4h8a4 4 0 0 0 4-4v-8.18a34.07 34.07 0 0 0 8.18-3.36l5.9 5.9a4 4 0 0 0 5.66 0l5.9-5.9a4 4 0 0 0 0-5.66l-5.9-5.9a34.07 34.07 0 0 0 3.36-8.18H96a4 4 0 0 0 4-4v-8a4 4 0 0 0-4-4h-8.18a34.07 34.07 0 0 0-3.36-8.18l5.9-5.9a4 4 0 0 0 0-5.66L84 20.36a4 4 0 0 0-5.66 0l-5.9 5.9a34.07 34.07 0 0 0-8.18-3.36V4a4 4 0 0 0-4-4zm0 64a14 14 0 1 1 14-14 14 14 0 0 1-14 14z"/>
</svg>